<?xml version="1.0" standalone="no"?>
<!DOCTYPE svg PUBLIC "-//W3C//DTD SVG 20010904//EN"
 "http://www.w3.org/TR/2001/REC-SVG-20010904/DTD/svg10.dtd">
<svg version="1.0" xmlns="http://www.w3.org/2000/svg"
 width="138.000000pt" height="124.000000pt" viewBox="0 0 138.000000 124.000000"
 preserveAspectRatio="xMidYMid meet">

<g transform="translate(0.000000,124.000000) scale(0.100000,-0.100000)"
fill="#000000" stroke="none">
<path d="M546 1059 c-43 -37 -54 -81 -32 -132 20 -50 69 -79 120 -73 107 13
144 161 54 216 -50 30 -100 26 -142 -11z m122 -35 c32 -22 30 -76 -4 -103 -36
-28 -60 -26 -89 5 -30 33 -31 53 -4 88 24 30 63 34 97 10z"/>
<path d="M908 911 c-67 -60 -28 -166 62 -166 90 0 129 106 62 166 -20 18 -43
29 -62 29 -19 0 -42 -11 -62 -29z m88 -29 c20 -14 25 -45 9 -68 -28 -42 -75
-25 -75 28 0 36 38 59 66 40z"/>
<path d="M207 785 l-18 -25 246 0 c258 0 272 -3 227 -43 -15 -14 -41 -17 -134
-17 -86 0 -118 -4 -127 -14 -8 -9 -11 -81 -9 -237 4 -309 -4 -311 198 41 l95
165 148 1 c81 0 150 -3 153 -8 3 -4 2 -17 -1 -28 -6 -18 -15 -20 -105 -20 -88
0 -100 -2 -110 -19 -12 -24 -13 -330 -1 -349 20 -32 46 -1 135 153 l92 160 69
3 c51 2 73 7 82 19 22 28 15 33 -47 33 -60 0 -75 11 -49 37 6 6 9 21 7 34 -3
24 -4 24 -168 29 -102 3 -164 9 -163 15 1 6 8 25 15 43 11 28 10 34 -2 42 -8
6 -126 10 -265 10 l-250 -1 -18 -24z m402 -134 c11 -7 -3 -37 -64 -142 -43
-74 -84 -141 -92 -149 -11 -12 -13 10 -13 137 l0 152 73 4 c39 1 74 4 77 5 3
1 11 -2 19 -7z m321 -111 c0 -17 -101 -190 -111 -190 -10 0 -13 183 -2 193 10
11 113 8 113 -3z"/>
</g>
</svg>
